inDegrees=no
num_controls=7
num_derivatives=13
num_iterations=166
num_multipliers=7
num_parameters=0
num_slacks=7
num_states=26
objective=5.705898
objective_accelerations=0.359342
objective_balance=0.020922
objective_effort=0.385871
objective_height=4.844614
objective_ligament=0.095149
solver_duration=1413.267392
status=Solve_Succeeded
success=true
DataType=double
version=3
OpenSimVersion=4.4-2022-07-23-0e9fedc
endheader
time	/jointset/ground_pelvis/pelvis_tilt/value	/jointset/ground_pelvis/pelvis_tx/value	/jointset/ground_pelvis/pelvis_ty/value	/jointset/hip_r/hip_flexion_r/value	/jointset/hip_r/hip_adduction_r/value	/jointset/hip_r/hip_rotation_r/value	/jointset/back/lumbar_extension/value	/jointset/patellofemoral_r/patellar_flexion_r/value	/jointset/knee_r/knee_flexion_r/value	/jointset/knee_r/knee_adduction_r/value	/jointset/knee_r/knee_rotation_r/value	/jointset/ankle_r/ankle_angle_r/value	/jointset/subtalar_r/subtalar_angle_r/value	/jointset/ground_pelvis/pelvis_tilt/speed	/jointset/ground_pelvis/pelvis_tx/speed	/jointset/ground_pelvis/pelvis_ty/speed	/jointset/hip_r/hip_flexion_r/speed	/jointset/hip_r/hip_adduction_r/speed	/jointset/hip_r/hip_rotation_r/speed	/jointset/back/lumbar_extension/speed	/jointset/patellofemoral_r/patellar_flexion_r/speed	/jointset/knee_r/knee_flexion_r/speed	/jointset/knee_r/knee_adduction_r/speed	/jointset/knee_r/knee_rotation_r/speed	/jointset/ankle_r/ankle_angle_r/speed	/jointset/subtalar_r/subtalar_angle_r/speed	/forceset/tau_hip_flexion_r	/forceset/tau_hip_adduction_r	/forceset/tau_hip_rotation_r	/forceset/tau_knee_flexion_r	/forceset/tau_ankle_angle_r	/forceset/tau_subtalar_angle_r	/forceset/tau_lumbar_extension	lambda_cid13_p0	lambda_cid14_p0	lambda_cid14_p1	lambda_cid14_p2	lambda_cid14_p3	lambda_cid14_p4	lambda_cid14_p5	/jointset/ground_pelvis/pelvis_tilt/accel	/jointset/ground_pelvis/pelvis_tx/accel	/jointset/ground_pelvis/pelvis_ty/accel	/jointset/hip_r/hip_flexion_r/accel	/jointset/hip_r/hip_adduction_r/accel	/jointset/hip_r/hip_rotation_r/accel	/jointset/back/lumbar_extension/accel	/jointset/patellofemoral_r/patellar_flexion_r/accel	/jointset/knee_r/knee_flexion_r/accel	/jointset/knee_r/knee_adduction_r/accel	/jointset/knee_r/knee_rotation_r/accel	/jointset/ankle_r/ankle_angle_r/accel	/jointset/subtalar_r/subtalar_angle_r/accel	gamma_cid13_p0	gamma_cid14_p0	gamma_cid14_p1	gamma_cid14_p2	gamma_cid14_p3	gamma_cid14_p4	gamma_cid14_p5
0.5	-0.195926771705332	0.007080578938972101	0.8465391203731305	0.8299390885132267	-0.2227996787540057	-0.1439461668300286	-0.6497835737667732	0.7057645869616367	0.7057645869617493	0.01638282577762498	0.1745246509225986	0.1449672804498373	0.08603017934424331	-0.5444025245087728	-0.2604786218489767	-0.3207288390280008	1.67416635507148	-0.004243345149431242	0.2262575382838017	-0.7358251363620268	1.233748552269033	1.233748552268929	-0.2231908778910484	-2.348193554228847e-05	0.1606001127224071	0.04151208508582488	-0.2305499430858812	-0.001065737040778332	0.01629800571504767	-0.2064723611958111	0.02685160627588493	-0.003928284156462383	0.2606071227867287	-20.83358019959691	-34.77185131837879	-4.091400737492627	-3.155447496750956	-4.731927992454551	-653.8709867637266	63.30841430119611	0.2086881191775384	0.58972786200343	-0.154489515885654	-1.348396576099016	-0.05922601777764607	-0.2519712750873103	1.865209959084633	-1.095102613223674	-1.095102613223707	0.5242178182671006	-0.02501533633934414	-0.06752458259553409	-0.08689237659824474	-2.304587772602186e-08	3.928241223987812e-08	5.826347500949918e-07	3.481451865076735e-07	-8.343245974160511e-08	-1.611373534499733e-08	1.980284122058881e-07
0.51	-0.2013594458406811	0.004505505168051356	0.8433248264797966	0.8466109206120769	-0.2228450929792156	-0.1416977317632942	-0.6570478636781569	0.7180455078263881	0.7180455078265019	0.01417663792929237	0.1745243809251509	0.1465695915375369	0.08644085017478027	-0.542050124674587	-0.2545144622285722	-0.3220586954116066	1.659974282617394	-0.004838564343854969	0.2234196359467653	-0.7169486636291901	1.222270228583739	1.222270228583679	-0.218024834686838	-3.100559212754177e-05	0.1598355627123796	0.04061436137936349	-0.2376654463555981	-0.0005265942275919481	0.01649632827276738	-0.208443094246321	0.02677396126314622	-0.003422746811352773	0.2666769209259578	-20.26520326653123	-34.99371013079034	-3.974722574950829	-3.100910675872745	-4.849444303387539	-657.5114479931823	63.55954108008645	0.2608467287396617	0.6029943060899507	-0.1115506384205939	-1.488475051289166	-0.05942707139232966	-0.3011833026196372	1.911493273357493	-1.199001537543925	-1.199001537537313	0.5161785586724706	0.01136588704881265	-0.08491928906125888	-0.09224083443299455	-2.21314921561383e-08	3.748477670067888e-08	5.507216599587153e-07	3.241769379161057e-07	-7.995024470914808e-08	-1.420852267508748e-08	1.910675738988663e-07
0.52	-0.2067661298150453	0.001990719852141111	0.8400993706348624	0.8631340594921532	-0.2228964108365966	-0.1394779724378472	-0.6641208633936151	0.730206684596022	0.7302066845961201	0.0120227867104522	0.1745240330446019	0.1481634573093651	0.0868423380748997	-0.539204492312385	-0.2484209308468765	-0.322961229348069	1.644427711314286	-0.005424071582984257	0.2205223900254171	-0.6975670971773863	1.209799733243982	1.209799733243966	-0.2127235519956504	-3.905855403420124e-05	0.1589110495481568	0.03967549900238572	-0.2447809496252485	1.254858560477887e-05	0.0166946508303874	-0.2104138272968265	0.02669631625040675	-0.002917209466228383	0.2727467190652459	-19.6972467429041	-35.21836487813247	-3.858189167991295	-3.046744405857023	-4.976821976216353	-661.2028652111873	63.8114858901835	0.3073346247808917	0.6156022142615482	-0.06902502645697038	-1.619296345903219	-0.05728362671875951	-0.2638399919496787	1.966228702878067	-1.293536944116337	-1.293536944116367	0.5512657156625336	-0.02512119740362783	-0.09951721343471416	-0.09512011070155203	-2.115045832276438e-08	3.64215908317821e-08	5.127717906115021e-07	2.98626809050974e-07	-7.761022904318149e-08	-6.822222123986242e-09	1.807926411289424e-07
0.53	-0.2121419733806383	-0.0004625702243975926	0.8368670038802628	0.8794952434701027	-0.2229535414260626	-0.1372873349945317	-0.6709977208107852	0.7422384008884224	0.742238400888524	0.009922630630696755	0.1745235108839224	0.1497472884981805	0.08723422326717693	-0.5358845501677427	-0.2422234697349232	-0.3234416235236397	1.627601026770172	-0.005998685212364299	0.2175907972525779	-0.6777461879713718	1.196391202571144	1.196391202571154	-0.2072972946184785	-6.249575412095725e-05	0.1578285152389237	0.03869694348015729	-0.2515915284606244	0.0005119259907992503	0.0168473109306414	-0.2124310077964235	0.02662371896234333	-0.002431547400818007	0.2784861483201377	-19.12995937652377	-35.43418588447908	-3.749400732813824	-2.990589851867171	-5.035253475351129	-664.7175220611374	64.04806146940004	0.3562778053629689	0.6238449920645135	-0.02697249440928143	-1.745559023052832	-0.05695942089676798	-0.3099733469000178	1.998751772402684	-1.387355401691253	-1.387355401687334	0.539948813619661	0.009527879840865353	-0.1166373446883073	-0.09980145045847354	-2.028010143355143e-08	3.479707881739698e-08	4.75279011574729e-07	2.717610571279854e-07	-7.45527553615767e-08	-1.26006023779447e-09	1.701412006649776e-07
0.54	-0.2174822267655719	-0.002853480303336	0.8336319480076472	0.895681919699744	-0.2230162999897969	-0.1351264443643319	-0.677674623187305	0.7541314630195355	0.7541314630196267	0.007877065737697121	0.1745228509234837	0.1513194911828993	0.08761620726873633	-0.5320864561808203	-0.2359449313268174	-0.323499052951264	1.609526161650573	-0.006549666435705727	0.2145730274017791	-0.6575760890477808	1.182068900985358	1.182068900985394	-0.2018053146462991	-6.661850812378532e-05	0.1565853487288631	0.03769526085892879	-0.2584021072959418	0.001011303395990734	0.01699997103082942	-0.2144481882960163	0.02655112167427464	-0.001945885335412166	0.2842255775750838	-18.5636750298093	-35.65385547307496	-3.640508393157384	-2.935340068221728	-5.104098805072727	-668.2997794541245	64.29022631159538	0.402964993237077	0.6318176734919426	0.01556792313229526	-1.868932461000074	-0.05255714551104333	-0.2810754075416398	2.036066646393399	-1.476291126706117	-1.47629112670615	0.5644102346640459	-0.02125830818681075	-0.1316436536003267	-0.09974553050161071	-1.953219563149531e-08	3.255152511013114e-08	4.382919494771664e-07	2.434397222473677e-07	-7.070149834352115e-08	2.283905678710211e-09	1.590731984969677e-07
0.55	-0.2227821750653377	-0.005181237691943903	0.830398426214035	0.9116817617467167	-0.2230844755847929	-0.1329959666404635	-0.6841481291689328	0.7658768647557161	0.7658768647558157	0.005886851119036433	0.174522121377628	0.1528784921032075	0.08798803200693489	-0.5278252986505385	-0.2295963088055742	-0.3231342862472218	1.590241494874981	-0.007081784196831785	0.2115081841884692	-0.6370774791817957	1.166866989668226	1.166866989668175	-0.1962303388044923	-7.586118902126735e-05	0.1551911331402923	0.03666639367492697	-0.2649953572493136	0.001466226655317796	0.01711610877275711	-0.2165339923696755	0.02657983090926398	-0.001492461147677155	0.2897475798326181	-17.99882708124871	-35.837563874453	-3.541282429365335	-2.87630829557099	-5.171232210654621	-671.7835726696143	64.51683104632535	0.4493792403742629	0.6379064594148373	0.05758481600503972	-1.98834344359026	-0.05291808760750692	-0.3213499285663099	2.063902371258243	-1.563805796866639	-1.563805796879648	0.5552052004539525	0.00979827953035803	-0.1468780848860758	-0.1048586340074532	-2.04799397260989e-08	2.565316323571876e-08	3.826201714241732e-07	1.806524178556431e-07	-6.225004973493533e-08	2.687889985782229e-09	1.382995218488497e-07
0.5600000000000001	-0.2280371741683108	-0.007445204471744155	0.8271706828418561	0.9274827351943921	-0.2231578481566455	-0.1308965695787928	-0.6904152202089875	0.7774659144462017	0.7774659144462933	0.003952619047105341	0.1745214105104834	0.1544228373529496	0.08834948780896107	-0.5230966168222357	-0.2231868095652874	-0.3223433686645684	1.569752441789341	-0.007589061805715813	0.2083568949615325	-0.6162931007335283	1.1507984918451	1.150798491844962	-0.1906088053020845	-6.288276705486723e-05	0.1536542146156965	0.0356214736246051	-0.2715886072026303	0.001921149914639394	0.01723224651461645	-0.2186197964433337	0.02660854014424591	-0.001039036959951059	0.2952695820902043	-17.43592710045511	-36.02589984331291	-3.441695283838694	-2.818671990107701	-5.249563531999732	-675.3474719940231	64.75316349813454	0.4964698528413567	0.6439930173005785	0.100798098854528	-2.109809723009547	-0.04758911506265767	-0.2983646102670676	2.093220362849914	-1.649608427904968	-1.649608427904951	0.5737217667842628	-0.01681408761395854	-0.1601842408054639	-0.1029561037656826	-2.346246369669405e-08	1.317143156073073e-08	3.045267342246641e-07	7.650595005059141e-08	-4.827837121771339e-08	-6.761036384648271e-10	1.058790358246023e-07
0.5700000000000001	-0.2332425951568231	-0.009644823588524625	0.8239529631236776	0.9430729488709059	-0.2232362666810735	-0.1288285572445201	-0.6964731344984976	0.7888901133703017	0.7888901133703655	0.002075315715900116	0.1745206304951915	0.1559510936866945	0.08870027371653841	-0.5179104492772967	-0.2167316186665997	-0.3211301991853321	1.548099224676563	-0.008089813191581859	0.2052281161807754	-0.5952560155960661	1.133906109529869	1.133906109529782	-0.1848510505331208	-8.719058890513075e-05	0.151974839721541	0.0345344171804336	-0.2779525167469137	0.002352298769997892	0.01731387461863174	-0.2206504861620801	0.0265688621561413	-0.0006061128789896492	0.3005404153265557	-16.87555786397117	-36.22794732403279	-3.352706639946298	-2.76015193437975	-5.268048424916586	-678.7338304170414	64.9572866055081	0.5412590532420121	0.6470833195274418	0.1421322245139223	-2.221738477856586	-0.05056562669932772	-0.322778673414679	2.114013825222232	-1.729325620146295	-1.729325620138744	0.5769666842876058	0.005651603076018245	-0.175153500771759	-0.1117310523581354	-2.52951504147421e-08	3.965028738669207e-09	2.410080044379659e-07	-1.215369447092633e-09	-3.754566087309716e-08	-1.529762455128597e-09	7.888382068510665e-08
0.58	-0.238393840700304	-0.01177973055764292	0.8207494862707025	0.95844089822181	-0.223319542214641	-0.1267923615303325	-0.7023196656894259	0.8001413339738829	0.8001413339739202	0.0002556228028359847	0.1745197855482015	0.1574618883940873	0.08904015893215002	-0.5122615278154835	-0.2102443800328519	-0.3194947956238586	1.525299576666009	-0.008560463631469685	0.2019935709426293	-0.5740164810174957	1.116202827742071	1.116202827742034	-0.1790867216707458	-7.586910889416378e-05	0.1501618893453387	0.03344133523165229	-0.284316426291143	0.002783447625357091	0.01739550272269363	-0.2226811758808201	0.02652918416803116	-0.0001731887980256751	0.3058112485629567	-16.31836267428016	-36.43514331385715	-3.262788678794104	-2.703871185300144	-5.300395840204921	-682.2095775227956	65.18191235206911	0.5890206362162479	0.6504025643125025	0.1852449153019882	-2.33909590256472	-0.04156892586703385	-0.3195179017449123	2.133710251071595	-1.811788322418606	-1.811788322418623	0.5750365854665214	-0.009688227241614122	-0.1868993372149597	-0.1041612046877151	-2.563037466435676e-08	-9.758295307439329e-10	1.964702889563237e-07	-4.452254231192646e-08	-3.103114163699063e-08	8.858519659903864e-10	5.895407460482255e-08
